<svg xmlns="http://www.w3.org/2000/svg" viewBox="0 0 380 352" font-family="Arial, sans-serif"><rect width="380" height="352" fill="#ffffff"/><text x="190" y="22" text-anchor="middle" font-size="16" fill="#222">Gene expression matrix (z-score)</text><rect x="100.0" y="82.0" width="40.0" height="40.0" fill="#eff2f5" stroke="#fff" stroke-width="0.5"/><text x="120.0" y="106.0" text-anchor="middle" font-size="9" fill="#222">0.2</text><rect x="140.0" y="82.0" width="40.0" height="40.0" fill="#e3ecf4" stroke="#fff" stroke-width="0.5"/><text x="160.0" y="106.0" text-anchor="middle" font-size="9" fill="#222">-0.1</text><rect x="180.0" y="82.0" width="40.0" height="40.0" fill="#bf3644" stroke="#fff" stroke-width="0.5"/><text x="200.0" y="106.0" text-anchor="middle" font-size="9" fill="#fff">2.4</text><rect x="220.0" y="82.0" width="40.0" height="40.0" fill="#d3605b" stroke="#fff" stroke-width="0.5"/><text x="240.0" y="106.0" text-anchor="middle" font-size="9" fill="#222">2.1</text><rect x="260.0" y="82.0" width="40.0" height="40.0" fill="#a50026" stroke="#fff" stroke-width="0.5"/><text x="280.0" y="106.0" text-anchor="middle" font-size="9" fill="#fff">2.8</text><rect x="100.0" y="122.0" width="40.0" height="40.0" fill="#d7e6f2" stroke="#fff" stroke-width="0.5"/><text x="120.0" y="146.0" text-anchor="middle" font-size="9" fill="#222">-0.4</text><rect x="140.0" y="122.0" width="40.0" height="40.0" fill="#f3f4f6" stroke="#fff" stroke-width="0.5"/><text x="160.0" y="146.0" text-anchor="middle" font-size="9" fill="#222">0.3</text><rect x="180.0" y="122.0" width="40.0" height="40.0" fill="#6facd2" stroke="#fff" stroke-width="0.5"/><text x="200.0" y="146.0" text-anchor="middle" font-size="9" fill="#222">-1.6</text><rect x="220.0" y="122.0" width="40.0" height="40.0" fill="#599fca" stroke="#fff" stroke-width="0.5"/><text x="240.0" y="146.0" text-anchor="middle" font-size="9" fill="#222">-1.8</text><rect x="260.0" y="122.0" width="40.0" height="40.0" fill="#4393c3" stroke="#fff" stroke-width="0.5"/><text x="280.0" y="146.0" text-anchor="middle" font-size="9" fill="#222">-2</text><rect x="100.0" y="162.0" width="40.0" height="40.0" fill="#ebf0f5" stroke="#fff" stroke-width="0.5"/><text x="120.0" y="186.0" text-anchor="middle" font-size="9" fill="#222">0.1</text><rect x="140.0" y="162.0" width="40.0" height="40.0" fill="#dbe8f2" stroke="#fff" stroke-width="0.5"/><text x="160.0" y="186.0" text-anchor="middle" font-size="9" fill="#222">-0.3</text><rect x="180.0" y="162.0" width="40.0" height="40.0" fill="#e68972" stroke="#fff" stroke-width="0.5"/><text x="200.0" y="186.0" text-anchor="middle" font-size="9" fill="#222">1.8</text><rect x="220.0" y="162.0" width="40.0" height="40.0" fill="#f4a582" stroke="#fff" stroke-width="0.5"/><text x="240.0" y="186.0" text-anchor="middle" font-size="9" fill="#222">1.6</text><rect x="260.0" y="162.0" width="40.0" height="40.0" fill="#e07b6b" stroke="#fff" stroke-width="0.5"/><text x="280.0" y="186.0" text-anchor="middle" font-size="9" fill="#222">1.9</text><rect x="100.0" y="202.0" width="40.0" height="40.0" fill="#f6f0ed" stroke="#fff" stroke-width="0.5"/><text x="120.0" y="226.0" text-anchor="middle" font-size="9" fill="#222">0.5</text><rect x="140.0" y="202.0" width="40.0" height="40.0" fill="#f7f7f7" stroke="#fff" stroke-width="0.5"/><text x="160.0" y="226.0" text-anchor="middle" font-size="9" fill="#222">0.4</text><rect x="180.0" y="202.0" width="40.0" height="40.0" fill="#bcd7ec" stroke="#fff" stroke-width="0.5"/><text x="200.0" y="226.0" text-anchor="middle" font-size="9" fill="#222">-0.9</text><rect x="220.0" y="202.0" width="40.0" height="40.0" fill="#a6cbe4" stroke="#fff" stroke-width="0.5"/><text x="240.0" y="226.0" text-anchor="middle" font-size="9" fill="#222">-1.1</text><rect x="260.0" y="202.0" width="40.0" height="40.0" fill="#c7def0" stroke="#fff" stroke-width="0.5"/><text x="280.0" y="226.0" text-anchor="middle" font-size="9" fill="#222">-0.8</text><rect x="100.0" y="242.0" width="40.0" height="40.0" fill="#dfeaf3" stroke="#fff" stroke-width="0.5"/><text x="120.0" y="266.0" text-anchor="middle" font-size="9" fill="#222">-0.2</text><rect x="140.0" y="242.0" width="40.0" height="40.0" fill="#ebf0f5" stroke="#fff" stroke-width="0.5"/><text x="160.0" y="266.0" text-anchor="middle" font-size="9" fill="#222">0.1</text><rect x="180.0" y="242.0" width="40.0" height="40.0" fill="#f5c0a8" stroke="#fff" stroke-width="0.5"/><text x="200.0" y="266.0" text-anchor="middle" font-size="9" fill="#222">1.2</text><rect x="220.0" y="242.0" width="40.0" height="40.0" fill="#f4b295" stroke="#fff" stroke-width="0.5"/><text x="240.0" y="266.0" text-anchor="middle" font-size="9" fill="#222">1.4</text><rect x="260.0" y="242.0" width="40.0" height="40.0" fill="#f5c7b2" stroke="#fff" stroke-width="0.5"/><text x="280.0" y="266.0" text-anchor="middle" font-size="9" fill="#222">1.1</text><text x="92" y="106.0" text-anchor="end" font-size="11" fill="#222">BRCA1</text><text x="92" y="146.0" text-anchor="end" font-size="11" fill="#222">TP53</text><text x="92" y="186.0" text-anchor="end" font-size="11" fill="#222">EGFR</text><text x="92" y="226.0" text-anchor="end" font-size="11" fill="#222">KRAS</text><text x="92" y="266.0" text-anchor="end" font-size="11" fill="#222">PTEN</text><text transform="translate(120.0,76.0) rotate(-30)" text-anchor="start" font-size="11" fill="#222">Ctrl_1</text><text transform="translate(160.0,76.0) rotate(-30)" text-anchor="start" font-size="11" fill="#222">Ctrl_2</text><text transform="translate(200.0,76.0) rotate(-30)" text-anchor="start" font-size="11" fill="#222">Trt_1</text><text transform="translate(240.0,76.0) rotate(-30)" text-anchor="start" font-size="11" fill="#222">Trt_2</text><text transform="translate(280.0,76.0) rotate(-30)" text-anchor="start" font-size="11" fill="#222">Trt_3</text><rect x="320.0" y="82.0" width="16" height="1" fill="#a50026"/><rect x="320.0" y="83.0" width="16" height="1" fill="#a60327"/><rect x="320.0" y="84.0" width="16" height="1" fill="#a80629"/><rect x="320.0" y="85.0" width="16" height="1" fill="#a9092b"/><rect x="320.0" y="86.0" width="16" height="1" fill="#ab0d2d"/><rect x="320.0" y="87.0" width="16" height="1" fill="#ac102f"/><rect x="320.0" y="88.0" width="16" height="1" fill="#ae1331"/><rect x="320.0" y="89.0" width="16" height="1" fill="#b01732"/><rect x="320.0" y="90.0" width="16" height="1" fill="#b11a34"/><rect x="320.0" y="91.0" width="16" height="1" fill="#b31d36"/><rect x="320.0" y="92.0" width="16" height="1" fill="#b42138"/><rect x="320.0" y="93.0" width="16" height="1" fill="#b6243a"/><rect x="320.0" y="94.0" width="16" height="1" fill="#b7273c"/><rect x="320.0" y="95.0" width="16" height="1" fill="#b92a3d"/><rect x="320.0" y="96.0" width="16" height="1" fill="#bb2e3f"/><rect x="320.0" y="97.0" width="16" height="1" fill="#bc3141"/><rect x="320.0" y="98.0" width="16" height="1" fill="#be3443"/><rect x="320.0" y="99.0" width="16" height="1" fill="#bf3845"/><rect x="320.0" y="100.0" width="16" height="1" fill="#c13b47"/><rect x="320.0" y="101.0" width="16" height="1" fill="#c33e48"/><rect x="320.0" y="102.0" width="16" height="1" fill="#c4414a"/><rect x="320.0" y="103.0" width="16" height="1" fill="#c6454c"/><rect x="320.0" y="104.0" width="16" height="1" fill="#c7484e"/><rect x="320.0" y="105.0" width="16" height="1" fill="#c94b50"/><rect x="320.0" y="106.0" width="16" height="1" fill="#ca4f52"/><rect x="320.0" y="107.0" width="16" height="1" fill="#cc5253"/><rect x="320.0" y="108.0" width="16" height="1" fill="#ce5555"/><rect x="320.0" y="109.0" width="16" height="1" fill="#cf5957"/><rect x="320.0" y="110.0" width="16" height="1" fill="#d15c59"/><rect x="320.0" y="111.0" width="16" height="1" fill="#d25f5b"/><rect x="320.0" y="112.0" width="16" height="1" fill="#d4625d"/><rect x="320.0" y="113.0" width="16" height="1" fill="#d5665f"/><rect x="320.0" y="114.0" width="16" height="1" fill="#d76960"/><rect x="320.0" y="115.0" width="16" height="1" fill="#d96c62"/><rect x="320.0" y="116.0" width="16" height="1" fill="#da7064"/><rect x="320.0" y="117.0" width="16" height="1" fill="#dc7366"/><rect x="320.0" y="118.0" width="16" height="1" fill="#dd7668"/><rect x="320.0" y="119.0" width="16" height="1" fill="#df7a6a"/><rect x="320.0" y="120.0" width="16" height="1" fill="#e17d6b"/><rect x="320.0" y="121.0" width="16" height="1" fill="#e2806d"/><rect x="320.0" y="122.0" width="16" height="1" fill="#e4836f"/><rect x="320.0" y="123.0" width="16" height="1" fill="#e58771"/><rect x="320.0" y="124.0" width="16" height="1" fill="#e78a73"/><rect x="320.0" y="125.0" width="16" height="1" fill="#e88d75"/><rect x="320.0" y="126.0" width="16" height="1" fill="#ea9176"/><rect x="320.0" y="127.0" width="16" height="1" fill="#ec9478"/><rect x="320.0" y="128.0" width="16" height="1" fill="#ed977a"/><rect x="320.0" y="129.0" width="16" height="1" fill="#ef9b7c"/><rect x="320.0" y="130.0" width="16" height="1" fill="#f09e7e"/><rect x="320.0" y="131.0" width="16" height="1" fill="#f2a180"/><rect x="320.0" y="132.0" width="16" height="1" fill="#f4a582"/><rect x="320.0" y="133.0" width="16" height="1" fill="#f4a684"/><rect x="320.0" y="134.0" width="16" height="1" fill="#f4a886"/><rect x="320.0" y="135.0" width="16" height="1" fill="#f4a989"/><rect x="320.0" y="136.0" width="16" height="1" fill="#f4ab8b"/><rect x="320.0" y="137.0" width="16" height="1" fill="#f4ad8d"/><rect x="320.0" y="138.0" width="16" height="1" fill="#f4ae90"/><rect x="320.0" y="139.0" width="16" height="1" fill="#f4b092"/><rect x="320.0" y="140.0" width="16" height="1" fill="#f4b294"/><rect x="320.0" y="141.0" width="16" height="1" fill="#f4b397"/><rect x="320.0" y="142.0" width="16" height="1" fill="#f4b599"/><rect x="320.0" y="143.0" width="16" height="1" fill="#f4b79b"/><rect x="320.0" y="144.0" width="16" height="1" fill="#f4b89e"/><rect x="320.0" y="145.0" width="16" height="1" fill="#f4baa0"/><rect x="320.0" y="146.0" width="16" height="1" fill="#f4bba2"/><rect x="320.0" y="147.0" width="16" height="1" fill="#f4bda5"/><rect x="320.0" y="148.0" width="16" height="1" fill="#f4bfa7"/><rect x="320.0" y="149.0" width="16" height="1" fill="#f5c0a9"/><rect x="320.0" y="150.0" width="16" height="1" fill="#f5c2ac"/><rect x="320.0" y="151.0" width="16" height="1" fill="#f5c4ae"/><rect x="320.0" y="152.0" width="16" height="1" fill="#f5c5b0"/><rect x="320.0" y="153.0" width="16" height="1" fill="#f5c7b3"/><rect x="320.0" y="154.0" width="16" height="1" fill="#f5c9b5"/><rect x="320.0" y="155.0" width="16" height="1" fill="#f5cab7"/><rect x="320.0" y="156.0" width="16" height="1" fill="#f5ccba"/><rect x="320.0" y="157.0" width="16" height="1" fill="#f5cebc"/><rect x="320.0" y="158.0" width="16" height="1" fill="#f5cfbe"/><rect x="320.0" y="159.0" width="16" height="1" fill="#f5d1c1"/><rect x="320.0" y="160.0" width="16" height="1" fill="#f5d2c3"/><rect x="320.0" y="161.0" width="16" height="1" fill="#f5d4c5"/><rect x="320.0" y="162.0" width="16" height="1" fill="#f5d6c8"/><rect x="320.0" y="163.0" width="16" height="1" fill="#f5d7ca"/><rect x="320.0" y="164.0" width="16" height="1" fill="#f5d9cc"/><rect x="320.0" y="165.0" width="16" height="1" fill="#f5dbcf"/><rect x="320.0" y="166.0" width="16" height="1" fill="#f6dcd1"/><rect x="320.0" y="167.0" width="16" height="1" fill="#f6ded3"/><rect x="320.0" y="168.0" width="16" height="1" fill="#f6e0d6"/><rect x="320.0" y="169.0" width="16" height="1" fill="#f6e1d8"/><rect x="320.0" y="170.0" width="16" height="1" fill="#f6e3da"/><rect x="320.0" y="171.0" width="16" height="1" fill="#f6e4dd"/><rect x="320.0" y="172.0" width="16" height="1" fill="#f6e6df"/><rect x="320.0" y="173.0" width="16" height="1" fill="#f6e8e1"/><rect x="320.0" y="174.0" width="16" height="1" fill="#f6e9e4"/><rect x="320.0" y="175.0" width="16" height="1" fill="#f6ebe6"/><rect x="320.0" y="176.0" width="16" height="1" fill="#f6ede8"/><rect x="320.0" y="177.0" width="16" height="1" fill="#f6eeeb"/><rect x="320.0" y="178.0" width="16" height="1" fill="#f6f0ed"/><rect x="320.0" y="179.0" width="16" height="1" fill="#f6f2ef"/><rect x="320.0" y="180.0" width="16" height="1" fill="#f6f3f2"/><rect x="320.0" y="181.0" width="16" height="1" fill="#f6f5f4"/><rect x="320.0" y="182.0" width="16" height="1" fill="#f7f7f7"/><rect x="320.0" y="183.0" width="16" height="1" fill="#f6f6f6"/><rect x="320.0" y="184.0" width="16" height="1" fill="#f5f6f6"/><rect x="320.0" y="185.0" width="16" height="1" fill="#f4f5f6"/><rect x="320.0" y="186.0" width="16" height="1" fill="#f3f5f6"/><rect x="320.0" y="187.0" width="16" height="1" fill="#f2f4f6"/><rect x="320.0" y="188.0" width="16" height="1" fill="#f1f4f6"/><rect x="320.0" y="189.0" width="16" height="1" fill="#f0f3f6"/><rect x="320.0" y="190.0" width="16" height="1" fill="#eff3f5"/><rect x="320.0" y="191.0" width="16" height="1" fill="#eef2f5"/><rect x="320.0" y="192.0" width="16" height="1" fill="#edf2f5"/><rect x="320.0" y="193.0" width="16" height="1" fill="#ecf1f5"/><rect x="320.0" y="194.0" width="16" height="1" fill="#ebf1f5"/><rect x="320.0" y="195.0" width="16" height="1" fill="#eaf0f5"/><rect x="320.0" y="196.0" width="16" height="1" fill="#e9f0f5"/><rect x="320.0" y="197.0" width="16" height="1" fill="#e8eff4"/><rect x="320.0" y="198.0" width="16" height="1" fill="#e7eff4"/><rect x="320.0" y="199.0" width="16" height="1" fill="#e6eef4"/><rect x="320.0" y="200.0" width="16" height="1" fill="#e5eef4"/><rect x="320.0" y="201.0" width="16" height="1" fill="#e4edf4"/><rect x="320.0" y="202.0" width="16" height="1" fill="#e3edf4"/><rect x="320.0" y="203.0" width="16" height="1" fill="#e2ecf4"/><rect x="320.0" y="204.0" width="16" height="1" fill="#e1ecf3"/><rect x="320.0" y="205.0" width="16" height="1" fill="#e0ebf3"/><rect x="320.0" y="206.0" width="16" height="1" fill="#dfebf3"/><rect x="320.0" y="207.0" width="16" height="1" fill="#dfeaf3"/><rect x="320.0" y="208.0" width="16" height="1" fill="#deeaf3"/><rect x="320.0" y="209.0" width="16" height="1" fill="#dde9f3"/><rect x="320.0" y="210.0" width="16" height="1" fill="#dce9f3"/><rect x="320.0" y="211.0" width="16" height="1" fill="#dbe8f2"/><rect x="320.0" y="212.0" width="16" height="1" fill="#dae8f2"/><rect x="320.0" y="213.0" width="16" height="1" fill="#d9e7f2"/><rect x="320.0" y="214.0" width="16" height="1" fill="#d8e7f2"/><rect x="320.0" y="215.0" width="16" height="1" fill="#d7e6f2"/><rect x="320.0" y="216.0" width="16" height="1" fill="#d6e6f2"/><rect x="320.0" y="217.0" width="16" height="1" fill="#d5e5f2"/><rect x="320.0" y="218.0" width="16" height="1" fill="#d4e5f1"/><rect x="320.0" y="219.0" width="16" height="1" fill="#d3e4f1"/><rect x="320.0" y="220.0" width="16" height="1" fill="#d2e4f1"/><rect x="320.0" y="221.0" width="16" height="1" fill="#d1e3f1"/><rect x="320.0" y="222.0" width="16" height="1" fill="#d0e3f1"/><rect x="320.0" y="223.0" width="16" height="1" fill="#cfe2f1"/><rect x="320.0" y="224.0" width="16" height="1" fill="#cee2f1"/><rect x="320.0" y="225.0" width="16" height="1" fill="#cde1f0"/><rect x="320.0" y="226.0" width="16" height="1" fill="#cce1f0"/><rect x="320.0" y="227.0" width="16" height="1" fill="#cbe0f0"/><rect x="320.0" y="228.0" width="16" height="1" fill="#cae0f0"/><rect x="320.0" y="229.0" width="16" height="1" fill="#c9dff0"/><rect x="320.0" y="230.0" width="16" height="1" fill="#c8dff0"/><rect x="320.0" y="231.0" width="16" height="1" fill="#c7def0"/><rect x="320.0" y="232.0" width="16" height="1" fill="#c7def0"/><rect x="320.0" y="233.0" width="16" height="1" fill="#c4dcef"/><rect x="320.0" y="234.0" width="16" height="1" fill="#c1dbee"/><rect x="320.0" y="235.0" width="16" height="1" fill="#bfd9ed"/><rect x="320.0" y="236.0" width="16" height="1" fill="#bcd8ec"/><rect x="320.0" y="237.0" width="16" height="1" fill="#b9d6eb"/><rect x="320.0" y="238.0" width="16" height="1" fill="#b7d5ea"/><rect x="320.0" y="239.0" width="16" height="1" fill="#b4d3e9"/><rect x="320.0" y="240.0" width="16" height="1" fill="#b1d2e8"/><rect x="320.0" y="241.0" width="16" height="1" fill="#afd0e7"/><rect x="320.0" y="242.0" width="16" height="1" fill="#accfe7"/><rect x="320.0" y="243.0" width="16" height="1" fill="#a9cde6"/><rect x="320.0" y="244.0" width="16" height="1" fill="#a7cce5"/><rect x="320.0" y="245.0" width="16" height="1" fill="#a4cae4"/><rect x="320.0" y="246.0" width="16" height="1" fill="#a2c9e3"/><rect x="320.0" y="247.0" width="16" height="1" fill="#9fc7e2"/><rect x="320.0" y="248.0" width="16" height="1" fill="#9cc6e1"/><rect x="320.0" y="249.0" width="16" height="1" fill="#9ac4e0"/><rect x="320.0" y="250.0" width="16" height="1" fill="#97c3df"/><rect x="320.0" y="251.0" width="16" height="1" fill="#94c1de"/><rect x="320.0" y="252.0" width="16" height="1" fill="#92c0de"/><rect x="320.0" y="253.0" width="16" height="1" fill="#8fbedd"/><rect x="320.0" y="254.0" width="16" height="1" fill="#8cbddc"/><rect x="320.0" y="255.0" width="16" height="1" fill="#8abbdb"/><rect x="320.0" y="256.0" width="16" height="1" fill="#87bada"/><rect x="320.0" y="257.0" width="16" height="1" fill="#85b8d9"/><rect x="320.0" y="258.0" width="16" height="1" fill="#82b7d8"/><rect x="320.0" y="259.0" width="16" height="1" fill="#7fb5d7"/><rect x="320.0" y="260.0" width="16" height="1" fill="#7db4d6"/><rect x="320.0" y="261.0" width="16" height="1" fill="#7ab2d5"/><rect x="320.0" y="262.0" width="16" height="1" fill="#77b1d5"/><rect x="320.0" y="263.0" width="16" height="1" fill="#75afd4"/><rect x="320.0" y="264.0" width="16" height="1" fill="#72aed3"/><rect x="320.0" y="265.0" width="16" height="1" fill="#6facd2"/><rect x="320.0" y="266.0" width="16" height="1" fill="#6dabd1"/><rect x="320.0" y="267.0" width="16" height="1" fill="#6aa9d0"/><rect x="320.0" y="268.0" width="16" height="1" fill="#67a8cf"/><rect x="320.0" y="269.0" width="16" height="1" fill="#65a6ce"/><rect x="320.0" y="270.0" width="16" height="1" fill="#62a5cd"/><rect x="320.0" y="271.0" width="16" height="1" fill="#60a3cc"/><rect x="320.0" y="272.0" width="16" height="1" fill="#5da2cc"/><rect x="320.0" y="273.0" width="16" height="1" fill="#5aa0cb"/><rect x="320.0" y="274.0" width="16" height="1" fill="#589fca"/><rect x="320.0" y="275.0" width="16" height="1" fill="#559dc9"/><rect x="320.0" y="276.0" width="16" height="1" fill="#529cc8"/><rect x="320.0" y="277.0" width="16" height="1" fill="#509ac7"/><rect x="320.0" y="278.0" width="16" height="1" fill="#4d99c6"/><rect x="320.0" y="279.0" width="16" height="1" fill="#4a97c5"/><rect x="320.0" y="280.0" width="16" height="1" fill="#4896c4"/><rect x="320.0" y="281.0" width="16" height="1" fill="#4594c3"/><text x="340" y="92.0" font-size="10" fill="#222">2.8</text><text x="340" y="282.0" font-size="10" fill="#222">-2</text></svg>