<svg xmlns="http://www.w3.org/2000/svg" viewBox="0 0 680 480" font-family="Arial, sans-serif"><rect width="680" height="480" fill="#ffffff"/><text x="340" y="22" text-anchor="middle" font-size="16" fill="#222">Differential expression (treatment vs control)</text><line x1="80" y1="410.0" x2="640" y2="410.0" stroke="#eee"/><text x="72" y="414.0" text-anchor="end" font-size="11" fill="#444">0</text><line x1="80" y1="336.0" x2="640" y2="336.0" stroke="#eee"/><text x="72" y="340.0" text-anchor="end" font-size="11" fill="#444">1.78</text><line x1="80" y1="262.0" x2="640" y2="262.0" stroke="#eee"/><text x="72" y="266.0" text-anchor="end" font-size="11" fill="#444">3.56</text><line x1="80" y1="188.0" x2="640" y2="188.0" stroke="#eee"/><text x="72" y="192.0" text-anchor="end" font-size="11" fill="#444">5.34</text><line x1="80" y1="114.0" x2="640" y2="114.0" stroke="#eee"/><text x="72" y="118.0" text-anchor="end" font-size="11" fill="#444">7.12</text><line x1="80" y1="40.0" x2="640" y2="40.0" stroke="#eee"/><text x="72" y="44.0" text-anchor="end" font-size="11" fill="#444">8.9</text><text x="80.0" y="428" text-anchor="middle" font-size="11" fill="#444">-2.8</text><text x="173.3" y="428" text-anchor="middle" font-size="11" fill="#444">-1.91667</text><text x="266.7" y="428" text-anchor="middle" font-size="11" fill="#444">-1.03333</text><text x="360.0" y="428" text-anchor="middle" font-size="11" fill="#444">-0.15</text><text x="453.3" y="428" text-anchor="middle" font-size="11" fill="#444">0.733333</text><text x="546.7" y="428" text-anchor="middle" font-size="11" fill="#444">1.61667</text><text x="640.0" y="428" text-anchor="middle" font-size="11" fill="#444">2.5</text><line x1="80" y1="40" x2="80" y2="410" stroke="#333"/><line x1="80" y1="410" x2="640" y2="410" stroke="#333"/><text x="360.0" y="454" text-anchor="middle" font-size="12" fill="#222">log₂ Fold Change</text><text transform="translate(20,225.0) rotate(-90)" text-anchor="middle" font-size="12" fill="#222">-log₁₀(p-value)</text><line x1="270.2" y1="40" x2="270.2" y2="410" stroke="#888" stroke-dasharray="4,3"/><line x1="481.5" y1="40" x2="481.5" y2="410" stroke="#888" stroke-dasharray="4,3"/><line x1="80" y1="355.9" x2="640" y2="355.9" stroke="#888" stroke-dasharray="4,3"/><text x="266.2" y="52.0" text-anchor="end" font-size="10" fill="#666">FC=-1.0</text><text x="485.5" y="52.0" text-anchor="start" font-size="10" fill="#666">FC=+1.0</text><text x="634" y="351.9" text-anchor="end" font-size="10" fill="#666">p=0.05</text><circle cx="566.0" cy="193.8" r="4" fill="#d62728" fill-opacity="0.7"/><circle cx="227.9" cy="239.6" r="4" fill="#1f77b4" fill-opacity="0.7"/><circle cx="640.0" cy="94.0" r="4" fill="#d62728" fill-opacity="0.7"/><circle cx="418.1" cy="364.3" r="2.5" fill="#bbb" fill-opacity="0.7"/><circle cx="154.0" cy="148.1" r="4" fill="#1f77b4" fill-opacity="0.7"/><circle cx="397.0" cy="385.1" r="2.5" fill="#bbb" fill-opacity="0.7"/><circle cx="544.9" cy="252.0" r="4" fill="#d62728" fill-opacity="0.7"/><circle cx="323.0" cy="351.8" r="2.5" fill="#bbb" fill-opacity="0.7"/><circle cx="80.0" cy="40.0" r="4" fill="#1f77b4" fill-opacity="0.7"/><circle cx="470.9" cy="326.9" r="2.5" fill="#bbb" fill-opacity="0.7"/><circle cx="495" cy="355" r="4" fill="#d62728"/><text x="505" y="358" font-size="10" fill="#222">Up</text><circle cx="495" cy="372" r="4" fill="#1f77b4"/><text x="505" y="375" font-size="10" fill="#222">Down</text><circle cx="495" cy="389" r="2.5" fill="#bbb"/><text x="505" y="392" font-size="10" fill="#222">NS</text></svg>