<svg xmlns="http://www.w3.org/2000/svg" viewBox="0 0 680 480" font-family="Arial, sans-serif"><rect width="680" height="480" fill="#ffffff"/><text x="340" y="22" text-anchor="middle" font-size="16" fill="#222">Tumor size by genotype</text><line x1="70" y1="420.0" x2="640" y2="420.0" stroke="#eee"/><text x="62" y="424.0" text-anchor="end" font-size="11" fill="#444">0.8</text><line x1="70" y1="344.0" x2="640" y2="344.0" stroke="#eee"/><text x="62" y="348.0" text-anchor="end" font-size="11" fill="#444">15.88</text><line x1="70" y1="268.0" x2="640" y2="268.0" stroke="#eee"/><text x="62" y="272.0" text-anchor="end" font-size="11" fill="#444">30.96</text><line x1="70" y1="192.0" x2="640" y2="192.0" stroke="#eee"/><text x="62" y="196.0" text-anchor="end" font-size="11" fill="#444">46.04</text><line x1="70" y1="116.0" x2="640" y2="116.0" stroke="#eee"/><text x="62" y="120.0" text-anchor="end" font-size="11" fill="#444">61.12</text><line x1="70" y1="40.0" x2="640" y2="40.0" stroke="#eee"/><text x="62" y="44.0" text-anchor="end" font-size="11" fill="#444">76.2</text><text x="70.0" y="438" text-anchor="middle" font-size="11" fill="#444">-0.5</text><text x="260.0" y="438" text-anchor="middle" font-size="11" fill="#444">0.5</text><text x="450.0" y="438" text-anchor="middle" font-size="11" fill="#444">1.5</text><text x="640.0" y="438" text-anchor="middle" font-size="11" fill="#444">2.5</text><line x1="70" y1="40" x2="70" y2="420" stroke="#333"/><line x1="70" y1="420" x2="640" y2="420" stroke="#333"/><text x="165.0" y="458" text-anchor="middle" font-size="12" fill="#222">WT</text><text x="355.0" y="458" text-anchor="middle" font-size="12" fill="#222">Mut</text><text x="545.0" y="458" text-anchor="middle" font-size="12" fill="#222">KO</text><line x1="165.0" y1="383.7" x2="165.0" y2="363.6" stroke="#1f77b4" stroke-width="1.5"/><line x1="151.7" y1="383.7" x2="178.3" y2="383.7" stroke="#1f77b4" stroke-width="1.5"/><line x1="165.0" y1="298.0" x2="165.0" y2="247.6" stroke="#1f77b4" stroke-width="1.5"/><line x1="151.7" y1="247.6" x2="178.3" y2="247.6" stroke="#1f77b4" stroke-width="1.5"/><rect x="145.0" y="298.0" width="40.0" height="65.5" fill="#1f77b4" fill-opacity="0.3" stroke="#1f77b4" stroke-width="1.5"/><line x1="145.0" y1="333.3" x2="185.0" y2="333.3" stroke="#1f77b4" stroke-width="2.5"/><circle cx="165.0" cy="212.4" r="2.5" fill="#1f77b4"/><line x1="355.0" y1="348.4" x2="355.0" y2="313.2" stroke="#d62728" stroke-width="1.5"/><line x1="341.7" y1="348.4" x2="368.3" y2="348.4" stroke="#d62728" stroke-width="1.5"/><line x1="355.0" y1="222.4" x2="355.0" y2="162.0" stroke="#d62728" stroke-width="1.5"/><line x1="341.7" y1="162.0" x2="368.3" y2="162.0" stroke="#d62728" stroke-width="1.5"/><rect x="335.0" y="222.4" width="40.0" height="90.7" fill="#d62728" fill-opacity="0.3" stroke="#d62728" stroke-width="1.5"/><line x1="335.0" y1="262.8" x2="375.0" y2="262.8" stroke="#d62728" stroke-width="2.5"/><circle cx="355.0" cy="81.3" r="2.5" fill="#d62728"/><circle cx="355.0" cy="66.2" r="2.5" fill="#d62728"/><line x1="545.0" y1="393.8" x2="545.0" y2="373.6" stroke="#2ca02c" stroke-width="1.5"/><line x1="531.7" y1="393.8" x2="558.3" y2="393.8" stroke="#2ca02c" stroke-width="1.5"/><line x1="545.0" y1="328.3" x2="545.0" y2="303.1" stroke="#2ca02c" stroke-width="1.5"/><line x1="531.7" y1="303.1" x2="558.3" y2="303.1" stroke="#2ca02c" stroke-width="1.5"/><rect x="525.0" y="328.3" width="40.0" height="45.4" fill="#2ca02c" fill-opacity="0.3" stroke="#2ca02c" stroke-width="1.5"/><line x1="525.0" y1="353.5" x2="565.0" y2="353.5" stroke="#2ca02c" stroke-width="2.5"/></svg>