<svg xmlns="http://www.w3.org/2000/svg" viewBox="0 0 680 480" font-family="Arial, sans-serif"><rect width="680" height="480" fill="#ffffff"/><text x="340" y="22" text-anchor="middle" font-size="16" fill="#222">Diagnostic model ROC</text><line x1="70.0" y1="40" x2="70.0" y2="420" stroke="#eee"/><line x1="70" y1="420.0" x2="550" y2="420.0" stroke="#eee"/><text x="70.0" y="436" text-anchor="middle" font-size="10" fill="#444">0.00</text><text x="62" y="423.0" text-anchor="end" font-size="10" fill="#444">0.00</text><line x1="190.0" y1="40" x2="190.0" y2="420" stroke="#eee"/><line x1="70" y1="325.0" x2="550" y2="325.0" stroke="#eee"/><text x="190.0" y="436" text-anchor="middle" font-size="10" fill="#444">0.25</text><text x="62" y="328.0" text-anchor="end" font-size="10" fill="#444">0.25</text><line x1="310.0" y1="40" x2="310.0" y2="420" stroke="#eee"/><line x1="70" y1="230.0" x2="550" y2="230.0" stroke="#eee"/><text x="310.0" y="436" text-anchor="middle" font-size="10" fill="#444">0.50</text><text x="62" y="233.0" text-anchor="end" font-size="10" fill="#444">0.50</text><line x1="430.0" y1="40" x2="430.0" y2="420" stroke="#eee"/><line x1="70" y1="135.0" x2="550" y2="135.0" stroke="#eee"/><text x="430.0" y="436" text-anchor="middle" font-size="10" fill="#444">0.75</text><text x="62" y="138.0" text-anchor="end" font-size="10" fill="#444">0.75</text><line x1="550.0" y1="40" x2="550.0" y2="420" stroke="#eee"/><line x1="70" y1="40.0" x2="550" y2="40.0" stroke="#eee"/><text x="550.0" y="436" text-anchor="middle" font-size="10" fill="#444">1.00</text><text x="62" y="43.0" text-anchor="end" font-size="10" fill="#444">1.00</text><line x1="70.0" y1="420.0" x2="550.0" y2="40.0" stroke="#bbb" stroke-dasharray="4,3"/><line x1="70" y1="40" x2="70" y2="420" stroke="#333"/><line x1="70" y1="420" x2="550" y2="420" stroke="#333"/><text x="310.0" y="464" text-anchor="middle" font-size="12" fill="#222">False Positive Rate (1-Specificity)</text><text transform="translate(22,230.0) rotate(-90)" text-anchor="middle" font-size="12" fill="#222">True Positive Rate (Sensitivity)</text><path d="M 70.0 420.0 L 94.0 351.6 L 127.6 283.2 L 175.6 211.0 L 238.0 154.0 L 310.0 108.4 L 382.0 78.0 L 454.0 55.2 L 526.0 43.8 L 550.0 40.0" fill="none" stroke="#1f77b4" stroke-width="2"/><path d="M 70.0 420.0 L 94.0 351.6 L 127.6 283.2 L 175.6 211.0 L 238.0 154.0 L 310.0 108.4 L 382.0 78.0 L 454.0 55.2 L 526.0 43.8 L 550.0 40.0 L 550.0 420.0 Z" fill="#1f77b4" fill-opacity="0.05"/><rect x="562" y="44" width="14" height="3" fill="#1f77b4"/><text x="580" y="50" font-size="11" fill="#222">Model A (index test)</text><text x="580" y="64" font-size="10" fill="#555">AUC=0.860 [0.810-0.910]</text><path d="M 70.0 420.0 L 118.0 336.4 L 175.6 268.0 L 238.0 211.0 L 310.0 173.0 L 382.0 138.8 L 454.0 100.8 L 526.0 66.6 L 550.0 40.0" fill="none" stroke="#d62728" stroke-width="2"/><path d="M 70.0 420.0 L 118.0 336.4 L 175.6 268.0 L 238.0 211.0 L 310.0 173.0 L 382.0 138.8 L 454.0 100.8 L 526.0 66.6 L 550.0 40.0 L 550.0 420.0 Z" fill="#d62728" fill-opacity="0.05"/><rect x="562" y="82" width="14" height="3" fill="#d62728"/><text x="580" y="88" font-size="11" fill="#222">Model B (baseline)</text><text x="580" y="102" font-size="10" fill="#555">AUC=0.740 [0.680-0.800]</text></svg>