<svg xmlns="http://www.w3.org/2000/svg" viewBox="0 0 680 480" font-family="Arial, sans-serif"><rect width="680" height="480" fill="#ffffff"/><text x="340" y="22" text-anchor="middle" font-size="16" fill="#222">BMI vs SBP</text><line x1="70" y1="420.0" x2="640" y2="420.0" stroke="#eee"/><text x="62" y="424.0" text-anchor="end" font-size="11" fill="#444">115.8</text><line x1="70" y1="344.0" x2="640" y2="344.0" stroke="#eee"/><text x="62" y="348.0" text-anchor="end" font-size="11" fill="#444">125.48</text><line x1="70" y1="268.0" x2="640" y2="268.0" stroke="#eee"/><text x="62" y="272.0" text-anchor="end" font-size="11" fill="#444">135.16</text><line x1="70" y1="192.0" x2="640" y2="192.0" stroke="#eee"/><text x="62" y="196.0" text-anchor="end" font-size="11" fill="#444">144.84</text><line x1="70" y1="116.0" x2="640" y2="116.0" stroke="#eee"/><text x="62" y="120.0" text-anchor="end" font-size="11" fill="#444">154.52</text><line x1="70" y1="40.0" x2="640" y2="40.0" stroke="#eee"/><text x="62" y="44.0" text-anchor="end" font-size="11" fill="#444">164.2</text><text x="70.0" y="438" text-anchor="middle" font-size="11" fill="#444">17.845</text><text x="165.0" y="438" text-anchor="middle" font-size="11" fill="#444">20.2467</text><text x="260.0" y="438" text-anchor="middle" font-size="11" fill="#444">22.6483</text><text x="355.0" y="438" text-anchor="middle" font-size="11" fill="#444">25.05</text><text x="450.0" y="438" text-anchor="middle" font-size="11" fill="#444">27.4517</text><text x="545.0" y="438" text-anchor="middle" font-size="11" fill="#444">29.8533</text><text x="640.0" y="438" text-anchor="middle" font-size="11" fill="#444">32.255</text><line x1="70" y1="40" x2="70" y2="420" stroke="#333"/><line x1="70" y1="420" x2="640" y2="420" stroke="#333"/><text x="355.0" y="464" text-anchor="middle" font-size="12" fill="#222">BMI (kg/m²)</text><text transform="translate(20,230.0) rotate(-90)" text-anchor="middle" font-size="12" fill="#222">SBP (mmHg)</text><circle cx="95.9" cy="402.7" r="3" fill="#1f77b4" fill-opacity="0.6"/><circle cx="147.3" cy="371.3" r="3" fill="#1f77b4" fill-opacity="0.6"/><circle cx="194.8" cy="324.2" r="3" fill="#1f77b4" fill-opacity="0.6"/><circle cx="250.2" cy="308.5" r="3" fill="#1f77b4" fill-opacity="0.6"/><circle cx="277.9" cy="277.1" r="3" fill="#1f77b4" fill-opacity="0.6"/><circle cx="333.2" cy="245.7" r="3" fill="#1f77b4" fill-opacity="0.6"/><circle cx="360.9" cy="222.1" r="3" fill="#1f77b4" fill-opacity="0.6"/><circle cx="424.2" cy="190.7" r="3" fill="#1f77b4" fill-opacity="0.6"/><circle cx="448.0" cy="167.2" r="3" fill="#1f77b4" fill-opacity="0.6"/><circle cx="507.3" cy="135.8" r="3" fill="#1f77b4" fill-opacity="0.6"/><circle cx="554.8" cy="104.4" r="3" fill="#1f77b4" fill-opacity="0.6"/><circle cx="614.1" cy="57.3" r="3" fill="#1f77b4" fill-opacity="0.6"/><line x1="95.9" y1="439.2" x2="614.1" y2="120.4" stroke="#d62728" stroke-width="2"/><text x="80" y="60" font-size="11" fill="#222">y = 3.1x + 56, R²=0.960</text></svg>